<svg width="13" height="13" viewBox="0 0 13 13" fill="none" xmlns="http://www.w3.org/2000/svg">
<path d="M11.55 2.51999H1.95C1.29 2.51999 0.756 3.08249 0.756 3.76999L0.75 11.27C0.75 11.9575 1.29 12.52 1.95 12.52H11.55C12.21 12.52 12.75 11.9575 12.75 11.27V3.76999C12.75 3.08249 12.21 2.51999 11.55 2.51999ZM11.31 5.17624L7.068 7.93874C6.876 8.06374 6.624 8.06374 6.432 7.93874L2.19 5.17624C2.04 5.07624 1.95 4.90749 1.95 4.72624C1.95 4.30749 2.388 4.05749 2.73 4.27624L6.75 6.89499L10.77 4.27624C11.112 4.05749 11.55 4.30749 11.55 4.72624C11.55 4.90749 11.46 5.07624 11.31 5.17624Z" fill="#658E99"/>
</svg>
