<svg width="13" height="12" viewBox="0 0 13 12" fill="none" xmlns="http://www.w3.org/2000/svg">
<path d="M7.60938 0.0620715C8.24966 0.178207 9.01571 0.510837 9.33169 0.81016C9.3479 0.825499 9.39524 0.863626 9.43687 0.894742C9.84838 1.20283 10.3936 1.96363 10.6017 2.52108C10.6285 2.59207 10.6631 2.68192 10.6793 2.72004C10.8774 3.19116 10.9642 4.1071 10.8739 4.77586C10.8011 5.31622 10.6188 5.99726 10.4378 6.4079C10.4212 6.44515 10.408 6.48284 10.408 6.49073C10.408 6.49861 10.3944 6.5363 10.3778 6.57399C10.0631 7.27826 9.88695 7.62754 9.60253 8.10917C9.55344 8.19244 9.50567 8.26344 9.49691 8.26738C9.48814 8.27133 9.48026 8.28272 9.48026 8.2928C9.48026 8.31822 9.19802 8.76874 8.98065 9.09085C8.76767 9.40639 8.71639 9.4787 8.43416 9.86742C8.2501 10.1207 8.19225 10.1979 8.10197 10.3109C8.09189 10.3236 8.04105 10.3916 7.9889 10.4621C7.7838 10.7404 6.77846 11.9934 6.75523 11.9999C6.74559 12.0026 6.67328 11.9241 6.5944 11.826C6.51551 11.7278 6.44539 11.6423 6.43838 11.6362C6.42392 11.6235 5.78057 10.8075 5.56276 10.5252C5.48037 10.4183 5.40149 10.3166 5.38746 10.2987C5.224 10.0914 4.89005 9.62463 4.63148 9.24161C4.53945 9.10531 4.45838 8.98874 4.45137 8.9826C4.4277 8.96244 4.28133 8.7236 4.29272 8.7236C4.29886 8.7236 4.28483 8.703 4.2616 8.67802C4.11435 8.51981 3.47758 7.37029 3.24093 6.83606C3.20937 6.76507 3.16861 6.6726 3.15021 6.63096C3.0963 6.50913 2.8969 5.96088 2.86359 5.84343C2.84694 5.78427 2.81276 5.66288 2.78822 5.57391C2.05722 2.92208 3.40702 0.549403 5.93089 0.0498006C6.29113 -0.0216337 7.18428 -0.0150601 7.60938 0.0620715ZM6.52384 1.29311C6.49404 1.29837 6.39718 1.31371 6.30822 1.32729C5.57941 1.43948 4.80766 1.95004 4.46232 2.54825C4.43997 2.58682 4.41411 2.61837 4.40491 2.61837C4.39571 2.61837 4.38782 2.62976 4.38782 2.64335C4.38782 2.65694 4.35451 2.73713 4.31419 2.82128C3.99252 3.48917 3.9579 4.29467 4.22216 4.95905C4.2822 5.11025 4.39264 5.34252 4.41148 5.35829C4.41893 5.36443 4.44041 5.39949 4.45969 5.43718C4.53945 5.59232 4.86595 5.96264 5.03511 6.08929C5.07674 6.12041 5.12714 6.16072 5.1473 6.17869C5.81607 6.77953 7.18734 6.85798 8.08794 6.34698C8.65021 6.02794 8.9881 5.62562 9.30846 4.89463C9.41452 4.65228 9.47675 4.10797 9.44081 3.73678C9.38998 3.21044 9.23308 2.80725 8.90878 2.3712C8.37193 1.64853 7.28989 1.15944 6.52384 1.29311Z" fill="#658E99"/>
</svg>
