<svg width="13" height="13" viewBox="0 0 13 13" fill="none" xmlns="http://www.w3.org/2000/svg">
<g clip-path="url(#clip0_9_252)">
<path d="M5.59264 8.39647C5.59264 8.39647 6.72845 8.31215 6.72845 6.97987C6.72845 5.64772 5.79912 4.9978 4.62184 4.9978H2.45496H2.39131H0.748169V12.4422H2.39131H2.45496H4.62184C4.62184 12.4422 6.98656 12.517 6.98656 10.245C6.98656 10.245 7.0898 8.39647 5.59264 8.39647ZM2.45496 6.32106H4.34305H4.62196C4.62196 6.32106 5.14858 6.32106 5.14858 7.09552C5.14858 7.86998 4.83873 7.98224 4.48765 7.98224H2.45496V6.32106ZM4.52198 11.1193H2.45496V9.12971H4.62184C4.62184 9.12971 5.4067 9.11968 5.4067 10.1521C5.4067 11.013 4.83271 11.1106 4.52198 11.1193Z" fill="#658E99"/>
<path d="M11.6106 5.4364H8.53912V6.3532H11.6106V5.4364Z" fill="#658E99"/>
<path d="M10.1405 6.89209C7.27774 6.89209 7.28025 9.75211 7.28025 9.75211C7.28025 9.75211 7.08404 12.598 10.1406 12.598C10.1406 12.598 12.6881 12.7436 12.6881 10.6182H11.3779C11.3779 10.6182 11.4217 11.4189 10.1844 11.4189C10.1844 11.4189 8.8744 11.5065 8.8744 10.1234H12.7317C12.7317 10.1234 13.1537 6.89209 10.1405 6.89209ZM11.305 9.12976H8.85961C8.85961 9.12976 9.01962 7.9823 10.1696 7.9823C11.3197 7.98217 11.305 9.12976 11.305 9.12976Z" fill="#658E99"/>
</g>
<defs>
<clipPath id="clip0_9_252">
<rect width="12" height="12" fill="white" transform="translate(0.75 0.599976)"/>
</clipPath>
</defs>
</svg>
