<svg width="13" height="13" viewBox="0 0 13 13" fill="none" xmlns="http://www.w3.org/2000/svg">
<g clip-path="url(#clip0_9_254)">
<path d="M6.75 0.336426C3.4365 0.336426 0.75 3.02255 0.75 6.33643C0.75 8.9873 2.46938 11.2366 4.85325 12.0297C5.15325 12.0852 5.2635 11.8996 5.2635 11.7409C5.2635 11.5981 5.25787 11.1252 5.25525 10.6238C3.58575 10.9868 3.23362 9.9158 3.23362 9.9158C2.96062 9.22243 2.56763 9.03793 2.56763 9.03793C2.02313 8.66555 2.60887 8.67305 2.60887 8.67305C3.21112 8.71543 3.52837 9.29143 3.52837 9.29143C4.0635 10.2087 4.932 9.94355 5.27437 9.79018C5.328 9.40243 5.48362 9.13768 5.65538 8.98768C4.32263 8.83618 2.92162 8.3213 2.92162 6.02255C2.92162 5.36743 3.156 4.8323 3.54 4.41193C3.47775 4.2608 3.27225 3.65068 3.59812 2.82418C3.59812 2.82418 4.10212 2.66293 5.2485 3.43918C5.727 3.30605 6.24037 3.23968 6.75037 3.23705C7.26 3.2393 7.77375 3.30605 8.25338 3.43918C9.39863 2.66293 9.9015 2.82418 9.9015 2.82418C10.2281 3.65068 10.0226 4.2608 9.96037 4.41193C10.3451 4.83193 10.578 5.36743 10.578 6.02255C10.578 8.32693 9.17438 8.8343 7.83825 8.98318C8.0535 9.16955 8.24512 9.53443 8.24512 10.0943C8.24512 10.8972 8.238 11.5433 8.238 11.7409C8.238 11.9007 8.346 12.0878 8.65012 12.0289C11.0329 11.2347 12.75 8.98655 12.75 6.33643C12.75 3.02255 10.0635 0.336426 6.75 0.336426Z" fill="#658E99"/>
</g>
<defs>
<clipPath id="clip0_9_254">
<rect width="12" height="12" fill="white" transform="translate(0.75 0.0400391)"/>
</clipPath>
</defs>
</svg>
