<svg width="13" height="13" viewBox="0 0 13 13" fill="none" xmlns="http://www.w3.org/2000/svg">
<path d="M10.9151 3.74691C10.1267 3.38595 9.29441 3.12988 8.43945 2.98523C8.32246 3.19437 8.2166 3.40955 8.12232 3.62987C7.21162 3.49264 6.2855 3.49264 5.3748 3.62987C5.28048 3.40958 5.17462 3.1944 5.05767 2.98523C4.20217 3.1311 3.3693 3.38778 2.5801 3.7488C1.01332 6.06687 0.588594 8.32736 0.800958 10.5558C1.7185 11.2337 2.74549 11.7493 3.83729 12.0801C4.08313 11.7494 4.30067 11.3986 4.4876 11.0315C4.13256 10.8989 3.78988 10.7353 3.46353 10.5426C3.54942 10.4803 3.63342 10.4161 3.71459 10.3538C4.66419 10.8004 5.70062 11.0319 6.74998 11.0319C7.79934 11.0319 8.83577 10.8004 9.78537 10.3538C9.86748 10.4208 9.95148 10.485 10.0364 10.5426C9.70945 10.7356 9.36615 10.8995 9.01047 11.0324C9.19717 11.3994 9.41472 11.7499 9.66078 12.0801C10.7535 11.7506 11.7813 11.2353 12.699 10.5567C12.9482 7.97248 12.2733 5.73275 10.9151 3.74691ZM4.75659 9.18531C4.1648 9.18531 3.67589 8.64827 3.67589 7.98758C3.67589 7.32689 4.14781 6.78513 4.7547 6.78513C5.36159 6.78513 5.84672 7.32689 5.83634 7.98758C5.82596 8.64827 5.3597 9.18531 4.75659 9.18531ZM8.74337 9.18531C8.15064 9.18531 7.66362 8.64827 7.66362 7.98758C7.66362 7.32689 8.13554 6.78513 8.74337 6.78513C9.3512 6.78513 9.83256 7.32689 9.82218 7.98758C9.81179 8.64827 9.34648 9.18531 8.74337 9.18531Z" fill="#658E99"/>
</svg>
